<svg xmlns="http://www.w3.org/2000/svg" fill="none" viewBox="0 0 512 512" preserveAspectRatio="xMinYMin meet">
  <rect id="c" width="512" height="512" x="0" y="0" fill="url(#a)" stroke="#FFF" stroke-opacity="100%" stroke-width="0" paint-order="stroke" rx="128"/>
  <rect width="512" height="512" fill="url(#b)" rx="128" style="mix-blend-mode:overlay"/>
  <defs>
    <radialGradient id="b" cx="0" cy="0" r="1" gradientTransform="matrix(0 512 -512 0 256 0)" gradientUnits="userSpaceOnUse">
      <stop stop-color="#fff"/>
      <stop offset="1" stop-color="#fff" stop-opacity="0"/>
    </radialGradient>
    <linearGradient id="a" gradientTransform="rotate(45)" gradientUnits="userSpaceOnUse" style="transform-origin:center center">
      <stop stop-color="#FC466B"/>
      <stop offset="1" stop-color="#3F5EFB"/>
    </linearGradient>
  </defs>
  <svg xmlns="http://www.w3.org/2000/svg" x="43.5" y="43.5" alignment-baseline="middle" style="color:#fff" viewBox="0 0 16 16">
    <path stroke="currentColor" stroke-linecap="round" stroke-linejoin="round" stroke-width="1.5" d="M5.25 12.5a1.75 1.75 0 1 1-3.5 0 1.75 1.75 0 0 1 3.5 0Zm0 0V4.78a1 1 0 0 1 .757-.97l7-1.75a1 1 0 0 1 1.243.97v7.47m0 0a1.75 1.75 0 1 1-3.5 0 1.75 1.75 0 0 1 3.5 0Z"/>
  </svg>
</svg>