<svg xmlns="http://www.w3.org/2000/svg" width="512" height="512" fill="none"><rect width="512" height="512" fill="url(#a)" paint-order="stroke" rx="128"/><rect width="512" height="512" fill="url(#b)" rx="128" style="mix-blend-mode:overlay"/><defs><radialGradient id="b" cx="0" cy="0" r="1" gradientTransform="matrix(0 512 -512 0 256 0)" gradientUnits="userSpaceOnUse"><stop stop-color="#fff"/><stop offset="1" stop-color="#fff" stop-opacity="0"/></radialGradient><linearGradient id="a" gradientTransform="rotate(90)" gradientUnits="userSpaceOnUse" style="transform-origin:center center"><stop stop-color="#00C6FF"/><stop offset="1" stop-color="#0072FF"/></linearGradient></defs><svg xmlns="http://www.w3.org/2000/svg" width="415" height="415" x="48.5" y="48.5" alignment-baseline="middle" style="color:#fff" viewBox="0 0 256 256"><path fill="currentColor" d="M212.92 25.71a7.89 7.89 0 0 0-6.86-1.46l-128 32A8 8 0 0 0 72 64v110.1A36 36 0 1 0 88 204v-93.75l112-28v59.85a36 36 0 1 0 16 29.9V32a8 8 0 0 0-3.08-6.29Z"/></svg></svg>